HIERARCHY
ROOT Center
{
	OFFSET 0 0 0 
	CHANNELS 6 Xposition Yposition Zposition Zrotation Xrotation Yrotation
	JOINT Abdomen
	{
		OFFSET -0.00120126 0.474001 0.074352 
		CHANNELS 3 Zrotation Xrotation Yrotation
		JOINT Chest
		{
			OFFSET 0 0.781146 0 
			CHANNELS 3 Zrotation Xrotation Yrotation
			JOINT Neck
			{
				OFFSET 0.00425911 0.886896 -0.0541514 
				CHANNELS 3 Zrotation Xrotation Yrotation
				JOINT Head
				{
					OFFSET 0.00358257 0.625374 0.00695322 
					CHANNELS 3 Zrotation Xrotation Yrotation
					End Site
					{
						OFFSET -0.0118769 0.624732 0.0257096 
					}
				}
			}
			JOINT LCollar
			{
				OFFSET 0.00425911 0.886896 -0.0541514 
				CHANNELS 3 Zrotation Xrotation Yrotation
				JOINT LShoulder
				{
					OFFSET 0.60423 0 0 
					CHANNELS 3 Zrotation Xrotation Yrotation
					JOINT LElbow
					{
						OFFSET 1.90212 0 0 
						CHANNELS 3 Zrotation Xrotation Yrotation
						JOINT LWrist
						{
							OFFSET 1.4034 0 0 
							CHANNELS 3 Zrotation Xrotation Yrotation
							End Site
							{
								OFFSET 0.984318 0 0 
							}
						}
					}
				}
			}
			JOINT RCollar
			{
				OFFSET 0.00425911 0.886896 -0.0541514 
				CHANNELS 3 Zrotation Xrotation Yrotation
				JOINT RShoulder
				{
					OFFSET -0.679914 0 0 
					CHANNELS 3 Zrotation Xrotation Yrotation
					JOINT RElbow
					{
						OFFSET -1.85605 0 0 
						CHANNELS 3 Zrotation Xrotation Yrotation
						JOINT RWrist
						{
							OFFSET -1.40893 0 0 
							CHANNELS 3 Zrotation Xrotation Yrotation
							End Site
							{
								OFFSET -0.984318 0 0 
							}
						}
					}
				}
			}
		}
	}
	JOINT LHip
	{
		OFFSET 0.45851 -0.621468 0.00081999 
		CHANNELS 3 Zrotation Xrotation Yrotation
		JOINT LKnee
		{
			OFFSET 0 -2.4679 0 
			CHANNELS 3 Zrotation Xrotation Yrotation
			JOINT LAnkle
			{
				OFFSET 0 -2.36891 0 
				CHANNELS 3 Zrotation Xrotation Yrotation
				End Site
				{
					OFFSET -0 -0.368077 -0.1164 
				}
				JOINT LToe
				{
					OFFSET 0 -0.368077 0.7425 
					CHANNELS 3 Zrotation Xrotation Yrotation
					End Site
					{
						OFFSET 0 -1.86956e-011 0.416318 
					}
				}
			}
		}
	}
	JOINT RHip
	{
		OFFSET -0.447934 -0.621468 0.00081999 
		CHANNELS 3 Zrotation Xrotation Yrotation
		JOINT RKnee
		{
			OFFSET 0 -2.47062 0 
			CHANNELS 3 Zrotation Xrotation Yrotation
			JOINT RAnkle
			{
				OFFSET 0 -2.36677 0 
				CHANNELS 3 Zrotation Xrotation Yrotation
				End Site
				{
					OFFSET -0 -0.368189 -0.1164 
				}
				JOINT RToe
				{
					OFFSET 0 -0.368189 0.795012 
					CHANNELS 3 Zrotation Xrotation Yrotation
					End Site
					{
						OFFSET 0 -1.88184e-011 0.419312 
					}
				}
			}
		}
	}
}
MOTION
Frames: 22
Frame Time: 0.0166667
4.67696 5.36035 36.3415 13.4555 3.9532 -21.2367 -6.3397 -4.85436 13.5093 5.92075 -9.00752 6.09039 -1.97477 13.6679 -39.6307 1.2313 -15.9409 -39.7909 -11.3652 0 -14.2689 -8.15453 -17.7048 14.2479 12.2577 -0.0372822 1.7701 0.163557 25.2291 20.6489 20.2061 0 -6.2554 34.0902 -32.847 18.5515 6.54 20.8962 46.0174 39.762 -33.4525 2.02675 -2.02145 -21.2662 38.0474 8.43111 38.4366 -5.26448 -4.30514 -17.9404 21.6803 -0 7.807 -0 -56.5681 -34.7242 -88.0743 -3.64589 2.64829 0.16868 -4.08867 63.4971 -7.75941 -0 8.9515 -0 
4.61707 5.21138 36.334 15.4307 5.45527 -21.7306 -3.24789 -4.72687 11.7004 0.335402 -10.1869 5.67129 -0.406314 12.9914 -39.2553 2.05114 -14.7351 -39.0904 -11.6833 -1.98785e-016 -15.3545 -5.74076 -16.2123 16.312 11.0397 -0.046889 1.239 -1.26106 26.2556 18.7674 23.2712 -1.98785e-016 -6.6774 37.0837 -28.6047 18.3259 8.11185 12.535 36.7419 37.9073 -28.1078 1.59438 -0.936396 -26.6384 41.0506 14.0065 45.2753 -10.0503 -7.54461 -23.0172 18.7341 -0 6.9625 -0 -60.3131 -36.5005 -91.6218 -3.61665 5.80498 0.366278 -0.322033 57.7577 -15.7573 -0 9.6324 -0 
4.5166 5.0969 36.3576 16.8958 4.62637 -22.0675 -1.43328 -3.48861 9.69193 -3.63242 -9.31857 4.7857 1.21549 10.444 -38.6041 1.64614 -15.2473 -38.4115 -13.78 0 -13.5255 -2.36543 -16.4841 14.8438 9.55355 -0.0371902 1.3156 -0.318828 29.0217 19.1904 27.6336 0 -7.443 34.8393 -21.7929 19.9375 4.96557 4.56424 29.0167 22.0988 -19.5092 -10.2294 -0.239022 -27.715 41.7716 16.5885 50.1001 -12.873 -7.40754 -25.5637 19.5722 -0 8.1297 -0 -64.2998 -36.0015 -87.9777 -2.70156 14.7549 0.688505 4.36831 49.2434 -25.9779 -0 10.2056 -0 
4.35474 5.03077 36.3878 17.1094 3.08164 -22.2954 -0.192696 -1.82658 7.22759 -4.17162 -9.56535 3.04274 -1.26809 10.5492 -37.0229 3.90013 -13.6595 -36.7625 -14.9834 0 -11.3774 -1.89907 -17.3661 14.2706 8.75501 -0.0607254 2.8394 1.75352 30.9339 16.8975 27.1086 -1.98785e-016 -5.2498 31.7719 -16.8702 17.0002 1.29833 1.44135 20.4247 16.9434 -9.3815 -13.9425 0.579327 -26.2446 45.3591 23.3358 50.4154 -18.391 -10.8291 -27.5086 17.6894 -0 6.4777 -0 -66.5398 -34.7505 -80.9868 1.41117 26.8713 -0.63799 2.17248 39.6411 -31.8608 -0 6.8198 -0 
4.11628 4.98779 36.4489 16.4136 1.33544 -22.97 1.08109 -0.874852 4.85377 -7.73122 -9.77244 1.89744 2.59743 11.1943 -35.7524 3.81391 -14.2027 -35.0801 -14.8294 0 -10.201 1.30187 -17.35 14.3951 8.9188 -0.0911339 3.4566 1.19765 31.9386 17.43 28.0954 0 -5.2138 29.552 -15.0861 15.137 -0.288282 0.048295 9.731 12.5131 1.0743 -14.373 3.0508 -22.3102 43.9958 22.2721 50.9743 -17.6497 -12.4693 -27.7132 17.9976 -0 7.6834 -0 -65.2953 -33.1522 -76.1553 5.59963 36.7981 -3.36104 -3.58155 29.1337 -31.2678 -0 2.6487 -0 
3.83225 4.97309 36.5184 15.2297 -0.754119 -23.1254 2.03728 -0.0908637 3.1366 -11.0776 -9.96944 0.842421 6.04658 13.0515 -34.158 4.89614 -14.2294 -32.8379 -12.1326 0 -12.4002 2.90683 -17.7873 17.8924 9.15071 -0.143912 3.62161 2.36153 35.3762 14.7186 28.0448 0 -4.6597 25.2713 -17.3044 10.8601 -0.676566 -0.0209955 1.184 13.1555 16.8702 -13.929 4.67564 -16.4097 40.815 20.1226 48.3987 -15.3221 -14.667 -27.1709 18.0662 -0 7.186 -0 -61.5466 -30.6732 -72.3215 7.19291 43.6682 -4.98025 -7.72382 16.1026 -28.8409 -0 2.5641 -0 
3.51877 4.98032 36.5768 14.3599 -0.81353 -23.9266 2.34041 -2.34397 1.52798 -12.3224 -9.04644 0.204646 6.45481 14.6298 -30.522 4.2957 -13.561 -29.118 -9.2095 1.98785e-016 -13.4649 2.37985 -17.6825 20.8347 10.2345 -0.0252807 2.2353 -0.790508 36.9121 15.184 27.1441 1.98785e-016 -4.0277 18.7935 -18.4628 7.69266 -2.41067 0.206273 -4.80303 17.9581 30.5777 -16.5345 8.35772 -11.2762 38.2025 15.2508 44.9962 -10.9114 -15.5955 -22.2221 14.9288 -0 7.7486 -0 -57.2462 -29.6743 -69.5174 9.37132 48.0652 -6.9992 -11.0386 6.10704 -28.0946 -0 5.421 -0 
3.21546 5.01523 36.5961 15.8535 -0.108212 -25.4081 -0.126721 -4.64536 0.877583 -12.7307 -10.081 -0.311814 5.86492 16.503 -25.2717 2.15087 -16.2816 -24.0829 -7.7915 0 -13.5824 3.31919 -17.7193 21.8102 10.5705 -0.0791162 2.6356 2.45219 37.4558 12.8935 23.6429 -9.93923e-017 -2.7624 13.4435 -19.6799 3.1301 -2.53499 0.307902 -6.6701 9.42278 35.5557 -16.563 9.26966 -8.37253 32.7633 10.577 40.4831 -6.91219 -17.3937 -13.4556 13.0054 -0 7.9293 -0 -55.4843 -31.8435 -69.0359 7.58235 51.6652 -5.96094 -10.1211 -0.615918 -26.2613 -0 6.9013 -0 
2.94172 5.08841 36.595 19.0103 -1.00972 -27.6626 -4.47827 -5.46874 2.29385 -11.7513 -9.57368 -0.710192 1.83228 14.7258 -19.1811 1.45301 -17.9057 -18.7814 -5.3941 -9.93923e-017 -12.8827 0.285264 -19.423 20.0147 11.2527 -0.0562564 4.09 3.75925 37.7924 10.1731 17.1101 4.96962e-017 -2.0232 9.16348 -20.1028 0.160264 -2.27921 0.19745 -7.15604 3.88479 40.0237 -14.0755 7.86217 -4.46975 25.6124 6.69548 34.1948 -3.77463 -15.7201 1.36044 10.0432 -0 10.1156 -0 -55.0537 -33.9308 -66.116 7.48741 52.7808 -5.97481 -8.98064 -5.09772 -25.6359 -0 5.6187 -0 
2.69884 5.21738 36.5853 22.7162 -1.23223 -30.4565 -9.75158 -8.25957 3.35989 -9.20425 -6.39203 -1.35291 -1.686 9.9276 -11.9667 1.46697 -18.9188 -12.0081 -5.3477 0 -8.2443 -0.857754 -24.0879 15.4602 12.4101 -0.148105 2.94071 2.43656 35.1312 14.154 11.2994 0 -2.7376 4.98261 -21.7895 2.07576 -3.02572 0.20255 -6.83504 2.60044 35.9852 -13.6497 6.25191 -0.430055 23.3455 7.29655 23.798 -2.95768 -17.4557 19.4692 6.97992 -0 11.0334 -0 -53.5224 -36.4257 -63.8973 5.84529 50.1774 -4.49576 -8.8415 -4.11529 -25.8157 -0 4.5204 -0 
2.47729 5.39612 36.5714 24.9939 -1.92312 -31.297 -12.7092 -8.06281 2.73738 -9.8224 -8.37108 -2.20591 -2.20279 9.9454 -4.58555 2.70816 -18.8206 -4.40177 -4.6371 -4.96962e-017 -8.8687 1.36348 -24.8121 18.3837 12.0309 0.0422974 -0.6399 6.39263 29.545 14.395 7.5842 0 -0.7195 -1.80258 -22.2704 -0.0366326 -4.6814 0.182245 -5.20503 9.2969 37.7726 -18.9414 7.45484 4.67302 23.4657 7.19716 16.2343 -2.02185 -17.3041 32.6718 3.35989 -0 16.1222 -0 -49.8383 -35.9295 -60.1558 4.6833 44.9882 -3.3146 -10.4632 0.63322 -26.5725 -0 5.2899 -0 
2.27515 5.6039 36.5536 25.6919 -3.3385 -30.1847 -13.9768 -6.00932 1.47621 -11.443 -8.41026 -2.88748 -2.6399 6.78088 1.40392 4.74778 -16.9714 1.9236 -4.8115 0 -6.5893 2.90922 -28.01 14.905 12.0464 0.0214994 -0.4364 5.9674 32.3187 12.7376 5.4579 0 -1.7414 -8.11472 -25.4256 1.25054 -4.82021 0.0429092 -3.724 10.1258 40.187 -23.1542 10.9953 9.66757 21.6001 6.85014 12.2393 -1.45887 -14.4985 40.5655 8.63349 -0 16.242 -0 -44.5921 -31.4935 -57.9393 2.57277 37.7247 -1.57487 -12.2648 5.86674 -23.9248 -0 7.9657 -0 
2.10061 5.82087 36.5454 25.7355 -5.1602 -29.4289 -14.6883 -2.96061 1.62327 -13.8826 -10.613 -4.50054 -2.51093 6.32639 5.35541 7.71172 -16.7557 6.35297 -4.5725 0 -6.3171 3.69017 -26.6347 13.6849 12.4769 -0.0253992 0.4618 7.29143 34.093 14.0205 6.2808 0 -1.4375 -17.3629 -21.6396 1.4668 -3.55537 0.216688 -3.07302 8.29749 27.8316 -24.0056 16.3413 16.0675 21.9769 5.33168 7.32329 -0.68156 -11.7894 48.94 14.0544 -0 15.4558 -0 -39.6072 -25.9431 -53.6708 2.12317 28.7676 -1.02217 -11.5173 13.8428 -20.1976 -0 8.4985 -0 
1.93136 6.04432 36.5438 24.5718 -6.40652 -28.3305 -14.9435 -1.77315 1.77525 -14.3089 -9.47012 -4.92691 -2.631 4.30635 8.15769 9.29571 -15.0459 9.31027 -8.2006 4.96962e-017 -4.9085 6.96843 -28.3306 9.95248 13.628 0.0316724 2.3914 3.1403 38.563 11.4586 6.6777 -2.48481e-017 -2.077 -25.2255 -26.6196 1.69065 -3.92414 0.0949819 -1.12 5.66871 13.9427 -28.2234 24.41 21.241 22.5499 5.85864 4.43996 -0.455166 -11.6468 56.639 12.6032 -0 16.8189 -0 -34.6438 -19.0713 -52.1921 2.18169 19.1323 -0.715419 -10.1078 22.9572 -14.3041 -0 9.9129 -0 
1.76964 6.22244 36.5361 23.3846 -6.51311 -26.1827 -15.1574 -2.08274 0.434187 -15.3051 -9.08634 -5.24439 0.164232 5.54965 10.3411 9.18972 -15.0073 11.6038 -8.0121 4.96962e-017 -5.8532 7.60752 -27.4322 10.1436 13.0829 0.0120979 1.0733 8.9047 36.6251 11.4843 7.2573 -2.48481e-017 -2.2809 -29.0146 -38.214 3.22247 -9.31154 -0.052998 0.493 8.10092 2.57673 -26.1057 35.3539 23.7701 18.311 3.56928 2.60449 -0.162368 -10.2148 62.0881 16.6361 -0 17.3464 -0 -30.2076 -13.7449 -53.4378 0.724428 10.0417 -0.126335 -10.1576 34.4673 -8.1066 -0 9.7318 -0 
1.6295 6.34551 36.5336 20.5597 -7.314 -24.9873 -13.1454 -0.506791 0.332113 -16.8267 -9.13438 -5.40636 1.68911 5.99458 12.0709 10.0002 -15.1439 13.552 -8.546 0 -7.4464 8.86467 -22.9433 10.58 11.811 0.0406912 -1.1884 10.5877 32.4425 13.2398 7.4122 -2.48481e-017 -2.1814 -31.6944 -51.6018 5.03665 -13.6628 -0.230624 3.26803 4.2078 -8.35584 -25.6863 48.6999 27.035 13.3451 -1.45814 1.3727 0.03491 -1.92683 65.6482 22.2715 -0 18.4286 -0 -24.9827 -7.30898 -55.2713 0.156633 0.8244 -0.00230024 -7.61722 45.2466 -3.98809 -0 12.2577 -0 
1.49533 6.41368 36.5257 19.3838 -6.92969 -23.3407 -13.8272 -0.507653 -0.778631 -14.9934 -9.31632 -5.52926 1.17886 6.09822 13.0411 11.0376 -15.0365 14.6434 -10.0111 -9.93923e-017 -7.0757 10.1549 -24.2667 9.27973 10.9205 0.163731 -2.60231 15.1962 37.1631 11.5343 7.3226 -2.48481e-017 -2.4611 -34.6396 -61.8264 7.67547 -11.8865 -0.019947 4.174 4.48191 -5.95517 -10.1947 59.5818 26.4808 9.71177 -1.99548 1.2729 0.0443109 0.038516 66.3004 25.3903 -0 18.7383 -0 -21.615 -3.28733 -60.7688 0.709751 -6.33689 0.0783789 -11.6583 55.0667 2.0423 -0 13.1966 -0 
1.38783 6.43611 36.5033 17.7702 -6.09792 -21.9416 -12.6855 0.530583 -1.20415 -15.1229 -10.7856 -5.62457 1.45194 5.98785 13.7855 10.62 -15.0706 15.359 -9.8486 -9.93923e-017 -7.6089 9.85798 -23.5908 7.82243 11.6362 0.087606 -3.8099 15.7163 45.5761 9.15058 5.7163 0 -3.6101 -34.8156 -63.4575 10.181 -8.12677 -0.145939 1.66001 -1.135 -0.95369 1.4597 70.2192 24.8335 7.03506 0.207509 0.3865 -0.00140003 -0.3263 68.1088 22.0325 -0 19.0325 -0 -18.1166 -0.465514 -63.915 1.92051 -11.9382 0.397395 -13.7446 62.7271 4.81473 -0 15.5698 -0 
1.31065 6.4118 36.4926 17.2152 -5.25473 -21.1049 -12.3308 0.131769 -1.2458 -13.6302 -11.521 -6.04412 -1.14595 6.02373 14.5935 12.3637 -16.0793 16.4121 -10.2493 9.93923e-017 -7.8355 8.61831 -22.1578 7.46521 13.3768 0.122338 -4.96991 14.7689 48.5201 7.85069 -0.0467 0 -1.5231 -35.1926 -61.3579 7.92856 -6.83369 -0.432693 2.15806 0.359569 -1.64294 -0.4859 78.3861 23.2535 7.36576 1.4367 0.0086 -0.0002 5.44267 67.9927 14.8262 -0 19.581 -0 -16.4982 0.393627 -68.2897 3.1749 -15.4517 0.846706 -20.9047 69.3584 11.4961 -0 18.3865 -0 
1.24897 6.38556 36.4763 17.1366 -5.68432 -20.3373 -13.5428 2.35949 -2.05294 -11.5419 -14.6258 -5.33309 -3.20137 7.29389 15.3431 13.0089 -18.79 17.4674 -10.5278 -9.93923e-017 -8.5176 8.36163 -22.915 7.62946 13.5117 0.464547 -6.76092 19.5289 53.6471 5.73267 -5.9299 0 0.6107 -32.6144 -61.3407 6.99587 -6.54407 -0.522901 3.71215 2.38297 0.844494 1.98222 84.4332 21.864 5.61031 1.3432 -0.5002 0.0117004 13.8059 68.5066 7.88961 -0 18.2351 -0 -15.7689 2.08419 -71.1318 5.15968 -17.6457 1.56789 -35.3468 72.4978 22.2879 -0 17.6494 -0 
1.2286 6.37212 36.4477 19.3831 -4.81656 -20.7909 -15.7837 2.44215 -1.762 -9.52965 -15.8235 -5.50023 -5.61618 5.50054 16.1239 13.9687 -19.4305 18.4405 -12.2157 0 -7.3946 8.94486 -22.0608 6.30293 13.1788 0.253154 -5.20045 26.2149 54.0368 0.148144 -10.7841 -6.21202e-018 0.3772 -26.9672 -64.8283 10.2519 -7.35563 -1.30752 5.69449 3.43273 1.58154 2.45754 84.7817 21.4187 7.96521 3.32415 -1.1961 0.0695151 13.5575 67.0885 5.04471 -0 17.9519 -0 -17.7146 -0.219094 -73.8304 5.71152 -18.087 1.77851 -41.1708 74.4746 28.4494 -0 18.0136 -0 
1.22569 6.36904 36.4259 21.5469 -5.08637 -20.2752 -17.289 4.2365 -2.58577 -8.51628 -17.0292 -5.13386 -8.03292 2.79339 16.1119 15.3562 -19.1355 18.6896 -13.0801 -9.93923e-017 -4.8264 8.20978 -23.9975 2.93586 11.5894 0.165265 -4.60382 22.7534 54.9684 2.91464 -10.131 0 0.2915 -28.9167 -68.6744 11.5512 -6.90015 -1.19047 5.9873 5.24496 2.20899 7.68605 83.9606 19.9912 7.89561 4.15866 -0.870499 0.0633073 8.16418 66.0653 8.03168 -0 20.0223 -0 -20.6923 -1.01482 -76.4771 6.01144 -16.981 1.76163 -30.8748 76.3956 20.2326 -0 19.0882 -0 
